<?xml version="1.0" encoding="UTF-8"?>
<svg version="1.1" xmlns="http://www.w3.org/2000/svg" width="800" height="339">
<path d="M0 0 C0.98769216 -0.00525911 0.98769216 -0.00525911 1.99533769 -0.01062447 C4.20530514 -0.01994028 6.41500918 -0.01501477 8.6249876 -0.01015663 C10.22402606 -0.0138928 11.8230627 -0.01849419 13.42209643 -0.02388728 C17.81918632 -0.03613678 22.21620024 -0.03585452 26.6133033 -0.03349853 C31.35439266 -0.03309085 36.09545749 -0.04412478 40.83653545 -0.05361366 C50.1263688 -0.0702353 59.41617676 -0.07572373 68.70602373 -0.07683842 C76.25637425 -0.07778834 83.80671638 -0.08189582 91.35706425 -0.08823967 C112.75796348 -0.10585522 134.15884263 -0.11507804 155.55974916 -0.11357872 C157.29078738 -0.11345885 157.29078738 -0.11345885 159.05679607 -0.11333656 C160.21222861 -0.1132548 161.36766115 -0.11317304 162.5581068 -0.1130888 C181.2859461 -0.1122758 200.013705 -0.13141618 218.74152104 -0.1596133 C237.96549466 -0.18832934 257.18942905 -0.2021543 276.41342467 -0.20042574 C287.20849609 -0.1997614 298.00348322 -0.20527305 308.79853535 -0.22678185 C317.98939484 -0.24497679 327.18013183 -0.24935485 336.37100152 -0.235763 C341.0606052 -0.22922485 345.74997374 -0.22914669 350.43955517 -0.2464695 C354.73351648 -0.26216784 359.02705557 -0.25936985 363.32100638 -0.24190123 C364.87348076 -0.23882418 366.4259864 -0.24249026 367.97842393 -0.25362138 C375.97020949 -0.30712315 382.51618419 -0.32317686 389.34756756 4.25726891 C394.37046291 9.54452717 395.64574639 13.71374952 395.62172222 20.89758873 C395.6269589 21.67123685 395.63219558 22.44488497 395.63759094 23.24197698 C395.65260318 25.83664469 395.65329637 28.43111541 395.65396404 31.02582359 C395.66158479 32.88533423 395.67001214 34.74484171 395.67918682 36.60434532 C395.70114901 41.6582095 395.70993322 46.71201317 395.71501327 51.76591969 C395.71865527 54.9239041 395.72489456 58.08187263 395.73201466 61.239851 C395.7565166 72.25868489 395.76956235 83.27747167 395.77310467 94.29633141 C395.77673895 104.56422686 395.80662478 114.83182321 395.84850925 125.09962726 C395.88321401 133.91675552 395.89865315 142.7337847 395.8993507 151.55098081 C395.90014355 156.81626696 395.90888566 162.08124862 395.93734837 167.34646416 C395.96353153 172.30091809 395.9657327 177.25481515 395.94969273 182.20930672 C395.94787835 184.02492678 395.95456792 185.84057887 395.97051144 187.65612984 C396.10702692 204.21499697 396.10702692 204.21499697 391.72542191 209.91210365 C386.52576506 214.98840053 382.00931108 216.38071431 374.94123077 216.39148998 C373.95700015 216.39501833 373.95700015 216.39501833 372.95288607 216.39861795 C370.73879311 216.405312 368.52475879 216.40484961 366.31065655 216.40443993 C364.71334547 216.4077383 363.11603523 216.41146381 361.51872605 216.41558141 C357.11713711 216.42561254 352.71556181 216.42931999 348.31396306 216.43197072 C343.57148128 216.43587046 338.82901033 216.44544901 334.08653545 216.45418358 C322.62750924 216.47395714 311.16848213 216.48401525 299.70944312 216.49291137 C294.31556995 216.49729274 288.92169775 216.50265993 283.52782536 216.50790024 C265.60152452 216.52491327 247.6752243 216.53940805 229.74891663 216.54664898 C225.09568373 216.54855893 220.44245083 216.55047925 215.78921795 216.55243492 C214.63265441 216.55291866 213.47609086 216.5534024 212.28447994 216.5539008 C193.54358444 216.56220335 174.80275273 216.58754375 156.0618851 216.6200156 C136.82893914 216.65306887 117.59602563 216.67109617 98.36305112 216.67429322 C87.56123729 216.6764599 76.75951647 216.6852317 65.95773029 216.71075439 C56.75950921 216.73243771 47.56140373 216.74052347 38.36315999 216.73078761 C33.66951507 216.72623607 28.9761088 216.72817872 24.28249645 216.74754906 C19.98476224 216.76513255 15.68744161 216.76422229 11.3897033 216.74865177 C9.8358201 216.74626836 8.28190863 216.75063717 6.72806875 216.76248042 C-9.84974843 216.88099785 -9.84974843 216.88099785 -16.19253272 210.77455503 C-20.48151293 205.92578391 -20.80025987 201.91568934 -20.79287434 195.72374535 C-20.79584546 194.94954052 -20.79881658 194.17533569 -20.80187774 193.37767011 C-20.81057112 190.77526965 -20.81207352 188.17291517 -20.81356525 185.57050133 C-20.81819297 183.70789555 -20.82321756 181.84529072 -20.82861042 179.982687 C-20.84174074 174.91650801 -20.84818059 169.85034228 -20.85262108 164.78414893 C-20.85555072 161.61999314 -20.85965532 158.45584098 -20.86412525 155.29168701 C-20.87780172 145.39464783 -20.8874677 135.49761693 -20.89132714 125.60056895 C-20.89580871 114.17051446 -20.91336057 102.7405795 -20.94232774 91.31056136 C-20.96393365 82.47905519 -20.97403084 73.64758268 -20.97536826 64.81605035 C-20.97641705 59.53971312 -20.98234063 54.26348824 -21.00018787 48.9871788 C-21.01664971 44.02382908 -21.01883322 39.06067638 -21.01004887 34.09730911 C-21.00927749 32.27601914 -21.01363448 30.45471866 -21.02350712 28.63345528 C-21.03619988 26.14598281 -21.03036457 23.65921096 -21.01992512 21.17174339 C-21.02798152 20.45198662 -21.03603793 19.73222986 -21.04433846 18.99066228 C-20.99878186 14.34542812 -20.09383089 11.20251295 -17.65243244 7.25726891 C-12.01812306 1.8679295 -7.74088986 0.00930194 0 0 Z M8.34756756 39.25726891 C8.32694256 42.86664391 8.30631756 46.47601891 8.28506756 50.19476891 C8.27596355 51.33421959 8.26685955 52.47367027 8.25747967 53.64764977 C8.25498211 54.53847252 8.25248455 55.42929527 8.24991131 56.34711266 C8.24467449 57.26355553 8.23943768 58.1799984 8.23404217 59.12421227 C8.10835544 61.24089914 8.10835544 61.24089914 9.34756756 62.25726891 C11.20126367 62.34464536 13.05824297 62.36425044 14.91397381 62.35492516 C16.03868084 62.3517025 17.16338787 62.34847984 18.32217693 62.34515953 C20.09818279 62.33259117 20.09818279 62.33259117 21.91006756 62.31976891 C23.09793865 62.31525719 24.28580975 62.31074547 25.50967693 62.30609703 C28.45566168 62.29426577 31.40162072 62.27632967 34.34756756 62.25726891 C34.34756756 54.66726891 34.34756756 47.07726891 34.34756756 39.25726891 C25.76756756 39.25726891 17.18756756 39.25726891 8.34756756 39.25726891 Z M53.53506756 84.88226891 C50.27269444 88.92544696 45.34756756 95.86782309 45.34756756 101.25726891 C52.93756756 102.57726891 60.52756756 103.89726891 68.34756756 105.25726891 C70.32756756 102.28726891 72.30756756 99.31726891 74.34756756 96.25726891 C79.1331076 94.34305289 81.75069681 93.95997848 86.78506756 93.94476891 C88.0625285 93.92801109 89.33998943 93.91125328 90.65616131 93.89398766 C94.63538373 94.28559367 97.00916574 95.07919526 100.34756756 97.25726891 C102.31635937 100.04351228 102.67614078 102.64776538 102.97256756 106.00726891 C103.04733318 106.80648766 103.12209881 107.60570641 103.19913006 108.42914391 C103.24811443 109.03242516 103.29709881 109.63570641 103.34756756 110.25726891 C101.70539766 110.64712091 100.06314299 111.03661787 98.42056561 111.42474937 C96.92943748 111.7775321 95.43872675 112.13208288 93.94839764 112.48822594 C89.55767101 113.53000249 85.16185297 114.5138775 80.74209881 115.42523766 C61.65855975 119.29533117 61.65855975 119.29533117 46.65225506 131.13226891 C42.29660363 138.22650357 42.55485743 146.21334723 43.34756756 154.25726891 C45.43964051 161.61358125 49.89011046 167.21331322 56.34756756 171.25726891 C66.45671294 176.1380454 76.87056056 176.87215173 87.59756756 173.63226891 C93.09249912 171.59441349 97.66408317 168.73756516 102.34756756 165.25726891 C103.33756756 164.59726891 104.32756756 163.93726891 105.34756756 163.25726891 C105.5525285 163.89535484 105.75748943 164.53344078 105.96866131 165.19086266 C106.23807537 166.01715172 106.50748943 166.84344078 106.78506756 167.69476891 C107.0519035 168.51847984 107.31873943 169.34219078 107.59366131 170.19086266 C108.1691225 172.21946479 108.1691225 172.21946479 109.34756756 173.25726891 C111.12828002 173.34453114 112.91239896 173.36425932 114.69522381 173.35492516 C115.77481365 173.3517025 116.8544035 173.34847984 117.96670818 173.34515953 C119.10301678 173.33678062 120.23932537 173.32840172 121.41006756 173.31976891 C122.55024334 173.31525719 123.69041912 173.31074547 124.86514568 173.30609703 C127.69267107 173.29426638 130.52009396 173.277783 133.34756756 173.25726891 C133.06606853 172.43073814 132.78456951 171.60420738 132.49454021 170.75263023 C128.39717115 156.97344351 128.7446682 143.21717839 128.72256756 128.94476891 C128.70612673 125.17087453 128.68392594 121.39722115 128.6509428 117.62343407 C128.63158472 115.29275785 128.62194771 112.96197173 128.6240263 110.63121605 C128.58982521 96.48785019 128.58982521 96.48785019 122.34756756 84.25726891 C112.61290169 74.74899062 101.49629735 74.07704473 88.47256756 74.06976891 C86.75360271 74.05139977 86.75360271 74.05139977 84.99991131 74.03265953 C73.32224285 74.01250245 61.90909923 75.99851356 53.53506756 84.88226891 Z M167.34756756 85.25726891 C166.35756756 86.74226891 166.35756756 86.74226891 165.34756756 88.25726891 C165.01756756 84.29726891 164.68756756 80.33726891 164.34756756 76.25726891 C156.75756756 76.25726891 149.16756756 76.25726891 141.34756756 76.25726891 C141.34756756 108.26726891 141.34756756 140.27726891 141.34756756 173.25726891 C149.59756756 173.25726891 157.84756756 173.25726891 166.34756756 173.25726891 C166.36215008 171.46176598 166.3767326 169.66626305 166.39175701 167.81635094 C166.44363923 161.84911288 166.50898552 155.88214613 166.58328247 149.9151535 C166.62779572 146.30135057 166.66709213 142.68765543 166.69400311 139.07367516 C166.72022834 135.57860427 166.76076179 132.08395258 166.81075382 128.58914375 C166.83528125 126.62307599 166.84541728 124.65684539 166.85521221 122.69064903 C166.99175051 114.27167859 167.66287814 106.60831727 172.16006756 99.31976891 C177.34947786 94.42689634 181.88238183 93.92758325 188.76163006 93.95648766 C191.44949634 94.26912467 193.08080374 94.80113586 195.34756756 96.25726891 C201.0290275 104.6742466 199.53737858 116.86136872 199.66397381 126.57758141 C199.68459668 127.93092976 199.70559432 129.28427245 199.72694683 130.63760948 C199.78161789 134.16542476 199.83126476 137.69329273 199.87979412 141.22119713 C199.9304158 144.83483012 199.98588754 148.44838848 200.04092693 152.06195641 C200.14783403 159.12699679 200.24897358 166.1921069 200.34756756 173.25726891 C208.59756756 173.25726891 216.84756756 173.25726891 225.34756756 173.25726891 C225.36738689 171.48158531 225.38720623 169.70590172 225.40762615 167.87640953 C225.47561732 161.98505322 225.55240865 156.09384623 225.63509464 150.20268059 C225.68486996 146.63367603 225.73120022 143.0646984 225.76944256 139.49555016 C225.80653427 136.04595577 225.85295592 132.59659762 225.90563107 129.14720726 C225.9329632 127.20208068 225.95083174 125.25682848 225.96850872 123.31159019 C226.12283807 113.98612399 226.81771366 106.02895546 232.34756756 98.25726891 C237.34971184 94.2759704 241.46463458 93.60809754 247.82022381 93.87836266 C251.43411445 94.42016697 253.0739838 95.39695386 255.34756756 98.25726891 C256.98537182 103.03539704 257.61014509 107.25795792 257.66641521 112.29413414 C257.67646084 112.95839912 257.68650646 113.62266411 257.6968565 114.30705833 C257.72745325 116.47665191 257.74465713 118.6461235 257.76163006 120.81586266 C257.78036072 122.33044531 257.79993552 123.84501773 257.82031536 125.35957909 C257.87144237 129.32637032 257.91117143 133.29319531 257.94845867 137.26013756 C257.98862083 141.31590556 258.03965719 145.37153549 258.08975506 149.42719078 C258.18628404 157.37046237 258.26975546 165.3137919 258.34756756 173.25726891 C266.59756756 173.25726891 274.84756756 173.25726891 283.34756756 173.25726891 C283.41551712 163.5035442 283.4704836 153.74997836 283.50300407 143.99606991 C283.51861729 139.46626572 283.53977561 134.93663277 283.57388592 130.40692711 C283.60663509 126.03026664 283.6244532 121.65377022 283.63219929 117.27699661 C283.637715 115.61254802 283.64848548 113.94810775 283.66475773 112.28372955 C283.77015845 101.04969164 283.54507247 91.25792835 276.23038006 82.05023766 C268.75307699 74.92973536 259.31709608 73.79408854 249.49600506 73.98773766 C238.20387441 74.5084788 230.13294189 80.47189458 222.34756756 88.25726891 C221.86288006 87.65398766 221.37819256 87.05070641 220.87881756 86.42914391 C215.57496865 80.10532405 211.21966813 76.88130243 203.34756756 74.25726891 C188.48829559 73.38908672 179.03632531 75.34680079 167.34756756 85.25726891 Z M299.46084881 85.43695641 C294.17925383 93.03324555 292.30921239 100.02744518 293.34756756 109.25726891 C295.20992622 115.70002318 298.57289556 121.70936531 304.22256756 125.52289391 C314.2016138 130.99750955 325.90014177 133.9994682 336.91788006 136.60883141 C337.82554119 136.82410484 338.73320232 137.03937828 339.66836834 137.26117516 C341.42099429 137.66747007 343.17718914 138.05873754 344.93692303 138.43305016 C350.8485649 139.78373519 350.8485649 139.78373519 353.41397381 142.21820641 C354.81172983 145.27104592 354.33568845 147.09528206 353.34756756 150.25726891 C350.54433424 153.99491333 347.76927635 155.02046441 343.34756756 156.25726891 C335.85010049 156.97352817 329.04655593 156.84601268 322.34756756 153.25726891 C318.84928722 150.13572645 316.98327922 146.60443053 315.34756756 142.25726891 C306.90326476 142.77482295 298.66670448 143.71335701 290.34756756 145.25726891 C291.46117515 154.07652902 296.14553326 161.16392436 303.01944256 166.72601891 C317.40414052 176.18709542 335.40553309 177.251447 351.91006756 174.00726891 C362.0198914 171.52029851 370.29755634 167.18210312 376.16006756 158.31976891 C380.37386899 151.00106115 381.59999933 143.64947515 379.69522381 135.44867516 C377.24886198 127.7106122 374.03473131 123.89131169 367.04678631 119.96430016 C355.14995676 114.09712322 341.76170775 111.25966369 328.93350506 108.15180016 C325.37619184 107.26440939 321.86657659 106.28402347 318.34756756 105.25726891 C318.34756756 102.28726891 318.34756756 99.31726891 318.34756756 96.25726891 C323.49670336 93.13808087 327.51135806 92.79559253 333.34756756 92.88226891 C334.12873943 92.87066734 334.90991131 92.85906578 335.71475506 92.84711266 C340.64575752 92.87201671 344.10825326 93.49222361 348.34756756 96.25726891 C350.36605789 98.44944329 351.72680401 100.73078456 353.34756756 103.25726891 C361.17224345 102.58272788 368.6931337 100.98849932 376.34756756 99.25726891 C375.2847833 90.64505165 369.9856635 85.18770304 363.49600506 79.72992516 C355.19319933 74.03872923 344.89534043 74.05257463 335.22256756 74.00726891 C333.60608318 73.97633141 333.60608318 73.97633141 331.95694256 73.94476891 C320.2411553 73.88830728 307.51904786 76.12748421 299.46084881 85.43695641 Z M8.34756756 76.25726891 C8.34756756 108.26726891 8.34756756 140.27726891 8.34756756 173.25726891 C16.92756756 173.25726891 25.50756756 173.25726891 34.34756756 173.25726891 C34.34756756 141.24726891 34.34756756 109.23726891 34.34756756 76.25726891 C25.76756756 76.25726891 17.18756756 76.25726891 8.34756756 76.25726891 Z " fill="#E39211" transform="translate(384.6524324417114,12.742731094360352)"/>
<path d="M0 0 C9.57 0 19.14 0 29 0 C29.57032959 2.5999585 30.14065918 5.19991699 30.72827148 7.87866211 C32.60881811 16.44892365 34.49342875 25.01828772 36.38006496 33.58721066 C37.52430566 38.78484289 38.66715634 43.98277278 39.80688477 49.18139648 C40.90591325 54.19413592 42.00852174 59.20607534 43.11366463 64.21747017 C43.5356025 66.13383228 43.95622832 68.05048375 44.37554741 69.96742058 C44.96105182 72.64302919 45.55112587 75.31759019 46.14233398 77.99194336 C46.31640274 78.7925116 46.4904715 79.59307983 46.66981506 80.41790771 C47.21580539 84.00637099 47.21580539 84.00637099 49 87 C49.14065887 86.4682869 49.28131775 85.93657379 49.42623901 85.38874817 C61.43389087 40.00425693 61.43389087 40.00425693 67.10357666 18.9078064 C67.53424378 17.3036517 67.96372961 15.6991794 68.39202881 14.09439087 C68.98203433 11.88494764 69.57631164 9.6767005 70.171875 7.46875 C70.6683252 5.61926758 70.6683252 5.61926758 71.17480469 3.73242188 C72 1 72 1 73 0 C75.44830426 -0.08843793 77.86820599 -0.11528752 80.31640625 -0.09765625 C81.41298805 -0.09553383 81.41298805 -0.09553383 82.53172302 -0.09336853 C84.87535632 -0.08775408 87.21889539 -0.07519922 89.5625 -0.0625 C91.14778508 -0.05748686 92.73307166 -0.05292363 94.31835938 -0.04882812 C98.2122761 -0.03777997 102.10612205 -0.02050572 106 0 C109.54099595 12.64556679 112.87905191 25.33540078 116.05078125 38.078125 C116.31083261 39.12265083 116.31083261 39.12265083 116.57613754 40.1882782 C117.82496809 45.20801626 119.06913226 50.22890653 120.3125 55.25 C121.5738886 60.34301177 122.83692503 65.43560492 124.10384178 70.52724457 C124.60488405 72.5443199 125.10308507 74.56208292 125.60115051 76.57989502 C125.90204086 77.79006287 126.20293121 79.00023071 126.51293945 80.24707031 C126.77685989 81.31322571 127.04078033 82.3793811 127.31269836 83.47784424 C127.90313846 85.96987562 127.90313846 85.96987562 129 88 C134.32661356 65.83933183 139.18180507 43.58051636 143.99902344 21.30444336 C144.25573822 20.11992584 144.512453 18.93540833 144.77694702 17.71499634 C145.26480393 15.46326777 145.75121449 13.21122523 146.23599243 10.95883179 C146.56269424 9.45130844 146.56269424 9.45130844 146.89599609 7.91333008 C147.18076309 6.59344841 147.18076309 6.59344841 147.47128296 5.24690247 C148 3 148 3 149 0 C158.24 0 167.48 0 177 0 C175.8749879 10.12510889 175.8749879 10.12510889 174.88163757 14.19534302 C174.65886139 15.1200087 174.43608521 16.04467438 174.20655823 16.99736023 C173.8426725 18.47037346 173.8426725 18.47037346 173.47143555 19.97314453 C173.21436829 21.03301071 172.95730103 22.09287689 172.69244385 23.18486023 C171.84594427 26.66885339 170.99145039 30.15083062 170.13671875 33.6328125 C169.5419398 36.07255415 168.94761218 38.51240586 168.35371399 40.95236206 C167.10876142 46.06217708 165.86031965 51.17112548 164.60864258 56.27929688 C163.0132036 62.79045592 161.42440394 69.30321263 159.83780193 75.81653023 C158.31461759 82.06832265 156.7882799 88.31934393 155.26171875 94.5703125 C154.97492437 95.74579777 154.68813 96.92128304 154.39264488 98.13238907 C151.3835249 110.45675696 148.33164285 122.75852583 145 135 C135.1 135 125.2 135 115 135 C109.37332441 116.09105133 104.24178501 97.08406816 99.23352051 78.00469971 C97.61328737 71.83497544 95.98735742 65.66674974 94.36158371 59.49848366 C93.79934328 57.36326207 93.23860616 55.22765029 92.6781311 53.09196472 C92.33704397 51.7952705 91.99593016 50.49858329 91.65478516 49.2019043 C91.35835114 48.07294235 91.06191711 46.94398041 90.75650024 45.7808075 C90.22783877 43.83750899 89.63685886 41.91057657 89 40 C86.34620787 47.60623733 84.24571214 55.31728211 82.19921875 63.10546875 C81.83701139 64.47487043 81.47452265 65.8441977 81.11177063 67.2134552 C80.15975992 70.80951839 79.21103479 74.40643959 78.26318359 78.00360107 C76.7621261 83.69797536 75.25619231 89.39106355 73.75033951 95.0841713 C73.38391093 96.4696443 73.01760523 97.85514981 72.65142441 99.24068832 C69.49610165 111.17764898 66.26893543 123.09359131 63 135 C52.77 135 42.54 135 32 135 C27.50002858 119.25010004 27.50002858 119.25010004 25.94458008 112.66992188 C25.77313477 111.94863098 25.60168945 111.22734009 25.42504883 110.48419189 C24.87016488 108.14642027 24.31980467 105.80761072 23.76953125 103.46875 C23.37110625 101.78610669 22.97239209 100.10353182 22.57341003 98.42102051 C21.52684345 94.00425095 20.48411567 89.58658417 19.44226074 85.16870117 C18.4136567 80.80984448 17.381527 76.45182319 16.34960938 72.09375 C15.12382559 66.91624668 13.89881088 61.73856636 12.67727661 56.56005859 C10.80597197 48.62792035 8.93037993 40.69691625 7.0339365 32.77074432 C6.1856943 29.22537949 5.33972193 25.6794745 4.49378014 22.13356018 C4.09193045 20.45231023 3.68888291 18.7713461 3.28458595 17.09068298 C2.72799281 14.77665348 2.17545819 12.46168955 1.6237793 10.14648438 C1.37525113 9.12069778 1.37525113 9.12069778 1.12170219 8.07418823 C0.46385415 5.29859298 0 2.86571846 0 0 Z " fill="#F8F7F6" transform="translate(16,51)"/>
<path d="M0 0 C8.91 0 17.82 0 27 0 C27 44.55 27 89.1 27 135 C18.09 135 9.18 135 0 135 C-0.1531129 117.98884484 -0.30195532 100.97767063 -0.4429636 83.96641159 C-0.50857271 76.06791259 -0.57611392 68.16943891 -0.64819336 60.27099609 C-0.71100801 53.3872505 -0.77020795 46.50348496 -0.82505554 39.61967111 C-0.85422718 35.97427954 -0.88521678 32.32892376 -0.92053413 28.68358612 C-0.95987868 24.61558774 -0.99115342 20.54756593 -1.02172852 16.47949219 C-1.03467453 15.26892654 -1.04762054 14.0583609 -1.06095886 12.81111145 C-1.06799835 11.70335861 -1.07503784 10.59560577 -1.08229065 9.45428467 C-1.09058679 8.49193279 -1.09888292 7.52958092 -1.10743046 6.53806686 C-1 4 -1 4 0 0 Z " fill="#F5F5F4" transform="translate(257,51)"/>
<path d="M0 0 C8.91 0 17.82 0 27 0 C27 44.55 27 89.1 27 135 C18.09 135 9.18 135 0 135 C0 90.45 0 45.9 0 0 Z " fill="#F7F6F5" transform="translate(309,51)"/>
<path d="M0 0 C8.58 0 17.16 0 26 0 C26.87829962 21.248345 27.00921267 42.32916598 26.60510254 63.58215332 C26.53257285 67.48566403 26.46888726 71.38932004 26.40429688 75.29296875 C26.27783263 82.86214501 26.14132831 90.43108401 26 98 C17.42 98 8.84 98 0 98 C-0.93740686 86.41339865 -1.06045161 74.99648664 -0.87890625 63.37890625 C-0.8545361 61.53947114 -0.83069632 59.70002893 -0.80735779 57.86058044 C-0.7452014 53.07176488 -0.67594952 48.28307859 -0.60510254 43.49438477 C-0.53379171 38.58681004 -0.4693533 33.67914529 -0.40429688 28.77148438 C-0.27616993 19.18088748 -0.13989286 9.59043249 0 0 Z " fill="#FCFBFA" transform="translate(205,88)"/>
<path d="M0 0 C3.35343006 2.91529347 4.88308983 5.4424284 5.8125 9.875 C5.874375 10.90625 5.93625 11.9375 6 13 C2.04 13.495 2.04 13.495 -2 14 C-2.30292969 13.44570313 -2.60585937 12.89140625 -2.91796875 12.3203125 C-3.33691406 11.59585937 -3.75585938 10.87140625 -4.1875 10.125 C-4.59355469 9.40570313 -4.99960938 8.68640625 -5.41796875 7.9453125 C-7.44078439 5.45799846 -8.92196369 4.85990986 -12 4 C-17.74349561 3.44649667 -23.20841552 3.46252465 -28.75 5.125 C-31.24452509 6.87943991 -31.24452509 6.87943991 -32.0625 10 C-32.27625195 12.90405139 -32.27625195 12.90405139 -30.92578125 14.56640625 C-28.17227334 16.61617786 -25.45254143 17.13155701 -22.125 17.9375 C-20.77429186 18.27817769 -19.42403814 18.62066156 -18.07421875 18.96484375 C-17.39407715 19.13612793 -16.71393555 19.30741211 -16.01318359 19.48388672 C3.27856151 24.4296482 3.27856151 24.4296482 8 32 C8.85451476 37.09629525 8.59927566 41.65162977 6.5 46.375 C1.94630092 51.15638404 -3.26921445 54.61179678 -9.96362305 55.16113281 C-30.59247013 55.58408688 -30.59247013 55.58408688 -38.375 49.625 C-43.01410787 44.98589213 -44.35901155 41.53808217 -45 35 C-42.03 35 -39.06 35 -36 35 C-33 40.75 -33 40.75 -33 43 C-23.37032131 47.08531823 -15.75477731 48.2568744 -5.8828125 44.8515625 C-3.81401503 44.04926879 -3.81401503 44.04926879 -2 42 C-1.49992206 38.54213985 -1.49992206 38.54213985 -2 35 C-4.84005837 32.25274863 -7.5518022 31.40161723 -11.359375 30.5703125 C-12.39320313 30.33183594 -13.42703125 30.09335937 -14.4921875 29.84765625 C-16.64752254 29.36955435 -18.80376654 28.89553016 -20.9609375 28.42578125 C-28.75407265 26.61769654 -34.54155141 24.11260373 -40.5 18.75 C-42.66295881 14.78457552 -42.75710503 11.41774685 -42 7 C-39.2151009 1.09601392 -34.95692099 -1.54177215 -29.0390625 -3.72265625 C-19.77186674 -6.32367216 -7.88408186 -5.97971426 0 0 Z " fill="#E5E5E5" transform="translate(212,266)"/>
<path d="M0 0 C4.34456567 4.46524805 6.48265304 8.98201396 6.5625 15.25 C6.43617021 19.12632979 6.43617021 19.12632979 5.25 20.3125 C2.89768301 20.41331087 0.57538053 20.45222939 -1.77734375 20.4453125 C-2.48145889 20.44626923 -3.18557404 20.44722595 -3.911026 20.44821167 C-5.40316863 20.44889341 -6.89531421 20.44703952 -8.38745117 20.44287109 C-10.67438418 20.43753063 -12.96112008 20.4428121 -15.24804688 20.44921875 C-16.69531293 20.44855781 -18.14257887 20.44727632 -19.58984375 20.4453125 C-20.27634506 20.44733673 -20.96284637 20.44936096 -21.67015076 20.45144653 C-26.52008473 20.42745764 -26.52008473 20.42745764 -28.75 19.3125 C-27.54257034 25.92423009 -27.54257034 25.92423009 -23.5625 30.875 C-22.634375 31.019375 -21.70625 31.16375 -20.75 31.3125 C-19.47125 31.580625 -18.1925 31.84875 -16.875 32.125 C-12.50553752 32.57929194 -9.56377315 31.55589597 -5.75 29.3125 C-3.79499143 26.78269293 -3.79499143 26.78269293 -2.75 24.3125 C0.22 24.6425 3.19 24.9725 6.25 25.3125 C5.0004642 31.14366707 2.07150006 34.10460818 -2.75 37.3125 C-9.32850202 40.63566081 -18.22242901 40.47216926 -25.296875 38.66015625 C-30.20630892 36.44329946 -33.77010975 32.75655778 -36.75 28.3125 C-37.94104332 24.73937005 -37.95528823 21.76696678 -38 18 C-38.02578125 16.70449219 -38.0515625 15.40898437 -38.078125 14.07421875 C-37.56704554 8.21505784 -35.39575283 4.39559647 -31 0.5625 C-21.54053997 -7.2428468 -9.95759853 -6.11034455 0 0 Z M-27.75 8.3125 C-28.08 9.9625 -28.41 11.6125 -28.75 13.3125 C-20.17 13.3125 -11.59 13.3125 -2.75 13.3125 C-4.04111032 6.599995 -4.04111032 6.599995 -7.25 3.875 C-15.02874927 0.40234408 -22.57186598 1.0124395 -27.75 8.3125 Z " fill="#E2E2E2" transform="translate(555.75,281.6875)"/>
<path d="M0 0 C3.99536526 3.50923716 7.81026187 7.71227496 9 13 C9.13631331 15.69092578 9.09148287 18.30125537 9 21 C4.99679847 21.95377184 1.27788253 22.1157616 -2.83203125 22.09765625 C-4.12431641 22.09443359 -5.41660156 22.09121094 -6.74804688 22.08789062 C-8.10286526 22.07953665 -9.45768297 22.07107172 -10.8125 22.0625 C-12.18684735 22.05748 -13.56119645 22.05291797 -14.93554688 22.04882812 C-18.29040924 22.03705668 -21.64518221 22.02061283 -25 22 C-24.35140368 26.74772507 -23.87030071 28.98976612 -20 32 C-16.12740257 34.32355846 -12.56158584 34.31609079 -8.19140625 33.76171875 C-5.47734401 32.81832813 -4.65664271 31.68691643 -3 29.375 C-1.6171875 27.45703125 -1.6171875 27.45703125 0 26 C3.16605832 25.68130436 5.93871256 26.19045954 9 27 C7.14461953 32.73481235 4.10322881 36.62832904 -0.875 39.875 C-7.88288374 42.44712436 -17.73214956 42.49665309 -24.5625 39.4375 C-29.72418026 36.24378062 -33.16575336 32.1235369 -35.375 26.5 C-36.80660311 18.48302257 -35.61176695 12.26854034 -32 5 C-24.87305599 -4.48815038 -9.79877759 -5.30328106 0 0 Z M-24 8 C-25.78229676 10.67344514 -26 11.73770359 -26 15 C-17.75 15 -9.5 15 -1 15 C-1.24791667 8.26458333 -1.24791667 8.26458333 -4.4375 5.5625 C-11.52404829 2.45436479 -18.07880351 2.67092316 -24 8 Z " fill="#E4E4E4" transform="translate(304,280)"/>
<path d="M0 0 C0.08144943 2.70894767 0.14070614 5.41541263 0.1875 8.125 C0.21263672 8.88554687 0.23777344 9.64609375 0.26367188 10.4296875 C0.33886095 16.24430913 -0.62363674 20.36460188 -4.6484375 24.828125 C-5.21820313 25.29734375 -5.78796875 25.7665625 -6.375 26.25 C-6.93960937 26.72953125 -7.50421875 27.2090625 -8.0859375 27.703125 C-13.69498175 31.50353865 -19.4169247 31.78300896 -26 31 C-30.4331235 28.86260117 -33.12530646 26.5825842 -35 22 C-35.62262414 17.09683488 -35.59819085 15.07261808 -33.1875 10.75 C-26.49621479 3.89189605 -9.49965563 0 0 0 Z " fill="#DD8F11" transform="translate(488,139)"/>
<path d="M0 0 C2.97 0 5.94 0 9 0 C12.09442271 5.98673222 14.75577706 12.053848 17.25 18.3125 C17.61351562 19.20517578 17.97703125 20.09785156 18.3515625 21.01757812 C18.69445312 21.87416016 19.03734375 22.73074219 19.390625 23.61328125 C19.70032227 24.38454346 20.01001953 25.15580566 20.32910156 25.95043945 C21 28 21 28 21 31 C21.66 31 22.32 31 23 31 C23.11335693 30.30237549 23.22671387 29.60475098 23.34350586 28.88598633 C24.07632907 25.66445299 25.20250872 22.86081299 26.50390625 19.82421875 C26.99697266 18.66728516 27.49003906 17.51035156 27.99804688 16.31835938 C28.51431641 15.12017578 29.03058594 13.92199219 29.5625 12.6875 C30.0883279 11.45786919 30.61372303 10.22805322 31.13867188 8.99804688 C32.42153664 5.99684948 33.70878448 2.99761185 35 0 C37.97 0 40.94 0 44 0 C43.33595705 4.42061368 41.7228852 8.26353015 39.91015625 12.3125 C39.45327675 13.3495105 39.45327675 13.3495105 38.98716736 14.4074707 C38.01697983 16.60709419 37.0399847 18.80361092 36.0625 21 C35.0900419 23.19700818 34.11899341 25.39463305 33.14854431 27.5925293 C32.54566947 28.95663063 31.94138135 30.3201085 31.33546448 31.68286133 C29.82086175 35.09671467 28.35975107 38.52143169 27 42 C24.03 42 21.06 42 18 42 C13.5357389 32.62962261 9.26337788 23.17867393 5.0625 13.6875 C4.56580811 12.57189697 4.06911621 11.45629395 3.55737305 10.30688477 C3.0962915 9.26072998 2.63520996 8.2145752 2.16015625 7.13671875 C1.74386963 6.19530029 1.32758301 5.25388184 0.89868164 4.28393555 C0 2 0 2 0 0 Z " fill="#E3E3E3" transform="translate(429,278)"/>
<path d="M0 0 C8.58 0 17.16 0 26 0 C26.7897992 8.86330211 26.82173038 15.96096582 26 25 C17.42 25 8.84 25 0 25 C0 16.75 0 8.5 0 0 Z " fill="#F6F5F3" transform="translate(205,51)"/>
<path d="M0 0 C0.66 0.33 1.32 0.66 2 1 C1.6875 3.875 1.6875 3.875 1 7 C-2 9 -2 9 -5.4375 8.4375 C-8.9146078 7.66686228 -8.9146078 7.66686228 -11.375 9.25 C-14.44543297 12.55662012 -14.17998563 16.11097489 -14.31640625 20.41796875 C-14.35830078 21.67158203 -14.40019531 22.92519531 -14.44335938 24.21679688 C-14.48267578 25.52712891 -14.52199219 26.83746094 -14.5625 28.1875 C-14.60570992 29.52279978 -14.649325 30.85808652 -14.69335938 32.19335938 C-14.79956502 35.46213297 -14.90160997 38.73098333 -15 42 C-17.97 42 -20.94 42 -24 42 C-24 28.14 -24 14.28 -24 0 C-21.36 0 -18.72 0 -16 0 C-15.67 0.99 -15.34 1.98 -15 3 C-14.195625 2.319375 -13.39125 1.63875 -12.5625 0.9375 C-8.4798944 -1.82970762 -4.61521233 -1.07995969 0 0 Z " fill="#E5E5E5" transform="translate(636,278)"/>
<path d="M0 0 C1.17755859 0.13535156 1.17755859 0.13535156 2.37890625 0.2734375 C4.4375 0.625 4.4375 0.625 6.4375 1.625 C6.08530657 4.23123142 5.67276531 6.23289115 4.3125 8.5 C2.4375 9.625 2.4375 9.625 -0.9375 9 C-4.64263164 8.19653549 -4.64263164 8.19653549 -7.24707031 10.69042969 C-9.99790866 14.17683595 -10.19842871 15.81643835 -10.234375 20.203125 C-10.25886719 21.44578125 -10.28335937 22.6884375 -10.30859375 23.96875 C-10.30988281 25.2578125 -10.31117188 26.546875 -10.3125 27.875 C-10.345485 30.4427553 -10.38175541 33.01047126 -10.421875 35.578125 C-10.42670898 36.71411133 -10.43154297 37.85009766 -10.43652344 39.02050781 C-10.5625 41.625 -10.5625 41.625 -11.5625 42.625 C-14.23308851 42.76615161 -16.88682238 42.66747107 -19.5625 42.625 C-21.25689089 39.23621822 -20.55763621 35.39692465 -20.44140625 31.6796875 C-20.41779526 30.7946756 -20.39418427 29.9096637 -20.36985779 28.99783325 C-20.29315076 26.16506183 -20.20915678 23.33255896 -20.125 20.5 C-20.07178636 18.58204449 -20.01904592 16.66407578 -19.96679688 14.74609375 C-19.83752609 10.03889173 -19.7017187 5.33191788 -19.5625 0.625 C-16.1875 0.4375 -16.1875 0.4375 -12.5625 0.625 C-11.9025 1.615 -11.2425 2.605 -10.5625 3.625 C-10.129375 3.150625 -9.69625 2.67625 -9.25 2.1875 C-6.28967283 -0.55354367 -3.78799518 -0.46179842 0 0 Z " fill="#E6E6E6" transform="translate(382.5625,277.375)"/>
<path d="M0 0 C2.31 0 4.62 0 7 0 C8.0625 2.375 8.0625 2.375 9 5 C8.67 5.66 8.34 6.32 8 7 C7.34 7 6.68 7 6 7 C6 5.02 6 3.04 6 1 C4.35 1 2.7 1 1 1 C1 14.2 1 27.4 1 41 C3.31 41 5.62 41 8 41 C8 41.33 8 41.66 8 42 C5.36 42 2.72 42 0 42 C-1.69439089 38.61121822 -0.99513621 34.77192465 -0.87890625 31.0546875 C-0.85529526 30.1696756 -0.83168427 29.2846637 -0.80735779 28.37283325 C-0.73065076 25.54006183 -0.64665678 22.70755896 -0.5625 19.875 C-0.50928636 17.95704449 -0.45654592 16.03907578 -0.40429688 14.12109375 C-0.27502609 9.41389173 -0.1392187 4.70691788 0 0 Z " fill="#DCDCDC" transform="translate(363,278)"/>
<path d="M0 0 C2.31 0 4.62 0 7 0 C8.0625 2.375 8.0625 2.375 9 5 C8.67 5.66 8.34 6.32 8 7 C7.34 7 6.68 7 6 7 C6 5.02 6 3.04 6 1 C4.02 1 2.04 1 0 1 C0 0.67 0 0.34 0 0 Z " fill="#939393" transform="translate(363,278)"/>
<path d="M0 0 C0.66 0 1.32 0 2 0 C2 1.65 2 3.3 2 5 C1.01 5.495 1.01 5.495 0 6 C-1.13350534 8.01669827 -1.13350534 8.01669827 -2 10 C-1.85950482 8.52031676 -1.71245174 7.04125484 -1.5625 5.5625 C-1.48128906 4.73878906 -1.40007812 3.91507812 -1.31640625 3.06640625 C-1 1 -1 1 0 0 Z " fill="#A79D8A" transform="translate(104,86)"/>
<path d="M0 0 C0.99 0.33 1.98 0.66 3 1 C-0.465 3.97 -0.465 3.97 -4 7 C-3.04065919 3.16263678 -2.76390737 2.40339772 0 0 Z " fill="#C1C1C1" transform="translate(276,281)"/>
<path d="M0 0 C1.32 0.33 2.64 0.66 4 1 C0.535 3.97 0.535 3.97 -3 7 C-3.66 6.67 -4.32 6.34 -5 6 C-3.35 4.02 -1.7 2.04 0 0 Z " fill="#9B9B9B" transform="translate(304,306)"/>
</svg>
